<svg width="14" height="12" viewBox="0 0 14 12" fill="none" xmlns="http://www.w3.org/2000/svg">
<path d="M6.8125 9.5625H13.1875M6.8125 2.4375H13.1875M3.8125 2.4375C3.8125 3.26593 3.14093 3.9375 2.3125 3.9375C1.48407 3.9375 0.8125 3.26593 0.8125 2.4375C0.8125 1.60907 1.48407 0.9375 2.3125 0.9375C3.14093 0.9375 3.8125 1.60907 3.8125 2.4375ZM3.8125 9.5625C3.8125 10.3909 3.14093 11.0625 2.3125 11.0625C1.48407 11.0625 0.8125 10.3909 0.8125 9.5625C0.8125 8.73407 1.48407 8.0625 2.3125 8.0625C3.14093 8.0625 3.8125 8.73407 3.8125 9.5625Z" stroke="#A1A1A1" stroke-width="1.5" stroke-linecap="square"/>
</svg>
