<svg width="28" height="28" viewBox="0 0 28 28" fill="none" xmlns="http://www.w3.org/2000/svg">
<g clip-path="url(#clip0_253_959)">
<rect width="28" height="28" fill="#1652F0"/>
<path d="M0.458984 8.79109C0.458984 6.5806 1.3371 4.46064 2.90015 2.89759C4.4632 1.33454 6.58316 0.456421 8.79365 0.456421H19.2124C21.4229 0.456421 23.5429 1.33454 25.1059 2.89759C26.669 4.46064 27.5471 6.5806 27.5471 8.79109V19.2099C27.5471 21.4204 26.669 23.5403 25.1059 25.1034C23.5429 26.6664 21.4229 27.5446 19.2124 27.5446H8.79365C6.58316 27.5446 4.4632 26.6664 2.90015 25.1034C1.3371 23.5403 0.458984 21.4204 0.458984 19.2099V8.79109Z" fill="#1652F0"/>
<path fill-rule="evenodd" clip-rule="evenodd" d="M13.9983 23.3791C8.81923 23.3791 4.62109 19.1809 4.62109 14.0019C4.62109 8.82374 8.81923 4.62561 13.9983 4.62561C19.1764 4.62561 23.3746 8.82374 23.3746 14.0019C23.3746 19.1809 19.1764 23.3791 13.9983 23.3791Z" fill="white"/>
<path d="M10.9766 12.3702C10.9768 12.0017 11.1233 11.6484 11.3839 11.3878C11.6445 11.1272 11.9978 10.9807 12.3663 10.9805H15.6302C16.3974 10.9805 17.019 11.6021 17.019 12.3702V15.6341C17.019 16.4013 16.3974 17.0229 15.6302 17.0229H12.3663C12.1838 17.023 12.0031 16.9872 11.8345 16.9174C11.6659 16.8477 11.5127 16.7454 11.3837 16.6164C11.2546 16.4875 11.1522 16.3343 11.0824 16.1658C11.0125 15.9972 10.9766 15.8165 10.9766 15.6341V12.3702Z" fill="#1652F0"/>
</g>
<defs>
<clipPath id="clip0_253_959">
<rect width="28" height="28" fill="white"/>
</clipPath>
</defs>
</svg>
